HIERARCHY
ROOT hip
{
  OFFSET 0 0 0
  CHANNELS 6 Xposition Yposition Zposition Zrotation Yrotation Xrotation
  JOINT abdomen
  {
    OFFSET 0 20.6881 -0.73152
    CHANNELS 3 Zrotation Xrotation Yrotation
    JOINT chest
    {
      OFFSET 0 11.7043 -0.48768
      CHANNELS 3 Zrotation Xrotation Yrotation
      JOINT neck
      {
        OFFSET 0 22.1894 -2.19456
        CHANNELS 3 Zrotation Xrotation Yrotation
        JOINT head
        {
          OFFSET -0.24384 7.07133 1.2192
          CHANNELS 3 Zrotation Xrotation Yrotation
          JOINT leftEye
          {
            OFFSET 4.14528 8.04674 8.04672
            CHANNELS 3 Zrotation Xrotation Yrotation
            End Site
            {
              OFFSET 1 0 0
            }
          }
          JOINT rightEye
          {
            OFFSET -3.6576 8.04674 8.04672
            CHANNELS 3 Zrotation Xrotation Yrotation
            End Site
            {
              OFFSET 1 0 0
            }
          }
        }
      }
      JOINT rCollar
      {
        OFFSET -2.68224 19.2634 -4.8768
        CHANNELS 3 Zrotation Xrotation Yrotation
        JOINT rShldr
        {
          OFFSET -8.77824 -1.95073 1.46304
          CHANNELS 3 Zrotation Xrotation Yrotation
          JOINT rForeArm
          {
            OFFSET -28.1742 -1.7115 0.48768
            CHANNELS 3 Zrotation Xrotation Yrotation
            JOINT rHand
            {
              OFFSET -22.5879 0.773209 7.07136
              CHANNELS 3 Zrotation Xrotation Yrotation
              JOINT rThumb1
              {
                OFFSET -1.2192 -0.487915 3.41376
                CHANNELS 3 Zrotation Xrotation Yrotation
                JOINT rThumb2
                {
                  OFFSET -3.37035 -0.52449 3.41376
                  CHANNELS 3 Zrotation Xrotation Yrotation
                  End Site
                  {
                    OFFSET -1.78271 -1.18214 1.43049
                  }
                }
              }
              JOINT rIndex1
              {
                OFFSET -7.75947 0.938293 5.60832
                CHANNELS 3 Zrotation Xrotation Yrotation
                JOINT rIndex2
                {
                  OFFSET -2.54057 -0.884171 1.56538
                  CHANNELS 3 Zrotation Xrotation Yrotation
                  End Site
                  {
                    OFFSET -1.62519 -0.234802 1.16502
                  }
                }
              }
              JOINT rMid1
              {
                OFFSET -8.24714 1.18213 3.41376
                CHANNELS 3 Zrotation Xrotation Yrotation
                JOINT rMid2
                {
                  OFFSET -3.10165 -0.590103 1.0647
                  CHANNELS 3 Zrotation Xrotation Yrotation
                  End Site
                  {
                    OFFSET -2.48547 -0.328903 0.83742
                  }
                }
              }
              JOINT rRing1
              {
                OFFSET -8.82822 0.546677 1.51678
                CHANNELS 3 Zrotation Xrotation Yrotation
                JOINT rRing2
                {
                  OFFSET -2.60934 -0.819778 -0.0198488
                  CHANNELS 3 Zrotation Xrotation Yrotation
                  End Site
                  {
                    OFFSET -2.33842 -0.294052 0.168128
                  }
                }
              }
              JOINT rPinky1
              {
                OFFSET -8.27202 -0.0477905 -0.4584
                CHANNELS 3 Zrotation Xrotation Yrotation
                JOINT rPinky2
                {
                  OFFSET -1.82734 -0.647385 -0.700984
                  CHANNELS 3 Zrotation Xrotation Yrotation
                  End Site
                  {
                    OFFSET -1.69225 -0.51767 -0.607171
                  }
                }
              }
            }
          }
        }
      }
      JOINT lCollar
      {
        OFFSET 2.68224 19.2634 -4.8768
        CHANNELS 3 Zrotation Xrotation Yrotation
        JOINT lShldr
        {
          OFFSET 8.77824 -1.95073 1.46304
          CHANNELS 3 Zrotation Xrotation Yrotation
          JOINT lForeArm
          {
            OFFSET 28.1742 -1.7115 0.48768
            CHANNELS 3 Zrotation Xrotation Yrotation
            JOINT lHand
            {
              OFFSET 22.5879 0.773209 7.07136
              CHANNELS 3 Zrotation Xrotation Yrotation
              JOINT lThumb1
              {
                OFFSET 1.2192 -0.487915 3.41376
                CHANNELS 3 Zrotation Xrotation Yrotation
                JOINT lThumb2
                {
                  OFFSET 3.37035 -0.52449 3.41376
                  CHANNELS 3 Zrotation Xrotation Yrotation
                  End Site
                  {
                    OFFSET 1.78271 -1.18214 1.43049
                  }
                }
              }
              JOINT lIndex1
              {
                OFFSET 7.75947 0.938293 5.60832
                CHANNELS 3 Zrotation Xrotation Yrotation
                JOINT lIndex2
                {
                  OFFSET 2.54057 -0.884171 1.56538
                  CHANNELS 3 Zrotation Xrotation Yrotation
                  End Site
                  {
                    OFFSET 1.62519 -0.234802 1.16502
                  }
                }
              }
              JOINT lMid1
              {
                OFFSET 8.24714 1.18213 3.41376
                CHANNELS 3 Zrotation Xrotation Yrotation
                JOINT lMid2
                {
                  OFFSET 3.10165 -0.590103 1.0647
                  CHANNELS 3 Zrotation Xrotation Yrotation
                  End Site
                  {
                    OFFSET 2.48547 -0.328903 0.83742
                  }
                }
              }
              JOINT lRing1
              {
                OFFSET 8.82822 0.546677 1.51678
                CHANNELS 3 Zrotation Xrotation Yrotation
                JOINT lRing2
                {
                  OFFSET 2.60934 -0.819778 -0.0198488
                  CHANNELS 3 Zrotation Xrotation Yrotation
                  End Site
                  {
                    OFFSET 2.33842 -0.294052 0.168128
                  }
                }
              }
              JOINT lPinky1
              {
                OFFSET 8.27202 -0.0477905 -0.4584
                CHANNELS 3 Zrotation Xrotation Yrotation
                JOINT lPinky2
                {
                  OFFSET 1.82734 -0.647385 -0.700984
                  CHANNELS 3 Zrotation Xrotation Yrotation
                  End Site
                  {
                    OFFSET 1.69225 -0.51767 -0.607171
                  }
                }
              }
            }
          }
        }
      }
    }
  }
  JOINT rButtock
  {
    OFFSET -8.77824 4.35084 1.2192
    CHANNELS 3 Zrotation Xrotation Yrotation
    JOINT rThigh
    {
      OFFSET 0 -1.70687 -2.19456
      CHANNELS 3 Zrotation Xrotation Yrotation
      JOINT rShin
      {
        OFFSET 0 -36.8199 0.73152
        CHANNELS 3 Zrotation Xrotation Yrotation
        JOINT rFoot
        {
          OFFSET 0.73152 -45.1104 -5.12064
          CHANNELS 3 Zrotation Xrotation Yrotation
          End Site
          {
            OFFSET -1.1221 -3.69964 12.103
          }
        }
      }
    }
  }
  JOINT lButtock
  {
    OFFSET 8.77824 4.35084 1.2192
    CHANNELS 3 Zrotation Xrotation Yrotation
    JOINT lThigh
    {
      OFFSET 0 -1.70687 -2.19456
      CHANNELS 3 Zrotation Xrotation Yrotation
      JOINT lShin
      {
        OFFSET 0 -36.8199 0.73152
        CHANNELS 3 Zrotation Xrotation Yrotation
        JOINT lFoot
        {
          OFFSET -0.73152 -45.1104 -5.12064
          CHANNELS 3 Zrotation Xrotation Yrotation
          End Site
          {
            OFFSET 1.1221 -3.69964 12.103
          }
        }
      }
    }
  }
}
MOTION
Frames:	4
Frame Time:	0.00833333
-52.0667 64.4548 -161.915 183.327 -24.156 -191.947 6.99164 19.5433 2.3844 1.03586 -9.5178 0.883416 -3.62434 -1.27184 -2.96417 3.8622 -14.8309 -4.33182 -0.0 0.0 0.0 -0.0 0.0 0.0 -9.19972e-14 1.139e-13 2.46962e-13 65.4131 60.8142 12.0741 -28.384 -33.4757 72.7035 -0.00373771 -1.80384 -0.253573 8.99049e-10 2.06777e-10 -5.177e-10 1.5479e-09 3.57644e-10 -8.96857e-10 8.99046e-10 2.06784e-10 -5.17713e-10 7.73091 5.47488 0.417314 8.99045e-10 2.0678e-10 -5.17702e-10 2.90554 0.965183 0.102902 8.99055e-10 2.0678e-10 -5.17702e-10 10.2786 0.731801 0.0259123 8.99048e-10 2.06776e-10 -5.17692e-10 2.22167 -0.733487 -0.20892 -9.20152e-14 1.13908e-13 2.46763e-13 -89.7652 40.4098 7.22263 -27.7613 -29.3437 66.2141 0.0142152 -3.41932 0.481126 -7.16052e-11 -2.63837e-10 -6.68072e-10 -1.22058e-10 -4.60021e-10 -1.15035e-09 -7.16093e-11 -2.63837e-10 -6.6807e-10 -7.73091 5.47488 -0.417314 -7.16056e-11 -2.63837e-10 -6.68067e-10 -2.90554 0.965183 -0.102902 -7.16081e-11 -2.63835e-10 -6.68074e-10 -10.2786 0.731801 -0.0259123 -7.16052e-11 -2.63836e-10 -6.68083e-10 -2.22167 -0.733487 0.20892 -2.03217e-16 0.0 -3.88251e-19 -8.47044 -30.7256 -11.2638 -172.291 81.7884 173.719 -0.417342 0.80983 4.11143 2.03217e-16 0.0 3.88251e-19 -1.91585 -50.9502 -6.14099 1.53915 65.9731 -2.03636 -0.334873 -0.747997 -4.91037
-52.4991 64.9509 -162.467 183.143 -23.9286 -191.626 6.88177 19.355 1.98242 1.03856 -9.5206 0.766949 -3.42376 -1.54241 -2.78907 3.56234 -14.5645 -4.07301 -0.0 0.0 0.0 -0.0 0.0 0.0 -1.84221e-13 4.60559e-13 2.39775e-13 66.2318 59.0044 10.5725 -28.2116 -31.9245 70.3012 -0.00603276 -2.26377 -0.318305 -1.47653e-11 -3.17308e-09 1.31436e-09 -3.39256e-11 -5.484e-09 2.26953e-09 -1.47655e-11 -3.17307e-09 1.31435e-09 7.73091 5.47488 0.417314 -1.4769e-11 -3.17307e-09 1.31436e-09 2.90554 0.965183 0.102902 -1.47578e-11 -3.17307e-09 1.31436e-09 10.2786 0.731801 0.0259123 -1.47667e-11 -3.17308e-09 1.31437e-09 2.22167 -0.733487 -0.20892 -1.84281e-13 4.60572e-13 2.39542e-13 -89.6241 39.3189 7.10708 -27.6775 -28.9514 65.5923 0.0180177 -3.8341 0.539663 9.19893e-10 7.27908e-09 -3.00161e-09 1.59745e-09 1.25828e-08 -5.17805e-09 9.19888e-10 7.27908e-09 -3.00161e-09 -7.73091 5.47488 -0.417314 9.19892e-10 7.27908e-09 -3.00161e-09 -2.90554 0.965183 -0.102902 9.19893e-10 7.27908e-09 -3.00162e-09 -10.2786 0.731801 -0.0259123 9.19895e-10 7.27908e-09 -3.00163e-09 -2.22167 -0.733487 0.20892 -2.03217e-16 0.0 -3.88251e-19 -8.8947 -31.7863 -12.323 -171.146 82.9091 172.486 -0.358881 -1.4399 1.96886 2.03217e-16 0.0 3.88251e-19 -2.05762 -50.1426 -6.01969 1.4943 65.4318 -1.95832 -0.31434 -1.19882 -4.67741
-52.9171 65.4672 -163.015 182.958 -23.6628 -191.314 6.76441 19.1847 1.651 1.04703 -9.52548 0.671565 -3.2461 -1.7974 -2.6347 3.2861 -14.3213 -3.84622 -0.0 0.0 0.0 -0.0 0.0 0.0 -2.32941e-13 6.48824e-13 2.22738e-13 67.0009 57.0163 9.20965 -27.968 -30.4253 67.9278 -0.0077313 -2.50972 -0.352946 -5.98806e-10 -5.31976e-09 2.43736e-09 -1.04451e-09 -9.19503e-09 4.21077e-09 -5.98805e-10 -5.31975e-09 2.43735e-09 7.73091 5.47488 0.417314 -5.98809e-10 -5.31975e-09 2.43736e-09 2.90554 0.965183 0.102902 -5.98798e-10 -5.31976e-09 2.43735e-09 10.2786 0.731801 0.0259123 -5.98808e-10 -5.31976e-09 2.43737e-09 2.22167 -0.733487 -0.20892 -2.33026e-13 6.48842e-13 2.2249e-13 -89.4211 38.367 6.94988 -27.5823 -28.5266 64.902 0.022184 -4.24807 0.598135 1.51607e-09 1.17121e-08 -4.32196e-09 2.63138e-09 2.02493e-08 -7.45724e-09 1.51606e-09 1.17121e-08 -4.32195e-09 -7.73091 5.47488 -0.417314 1.51607e-09 1.17121e-08 -4.32196e-09 -2.90554 0.965183 -0.102902 1.51607e-09 1.17121e-08 -4.32196e-09 -10.2786 0.731801 -0.0259123 1.51607e-09 1.17121e-08 -4.32197e-09 -2.22167 -0.733487 0.20892 -2.03217e-16 0.0 -3.88251e-19 -9.22476 -32.7678 -13.2126 -169.24 84.2401 170.502 -0.45031 -3.32483 0.178586 2.03217e-16 0.0 3.88251e-19 -2.21238 -49.2922 -5.94688 1.4449 64.8362 -1.88328 -0.282125 -1.62642 -4.39748
-53.3258 65.9979 -163.555 182.752 -23.3607 -191.01 6.63836 19.0493 1.40427 1.05767 -9.54035 0.601734 -3.08991 -2.03232 -2.50413 3.0358 -14.1104 -3.65813 -0.0 0.0 0.0 -0.0 0.0 0.0 -2.15935e-13 5.95528e-13 1.80662e-13 67.7444 54.827 7.98542 -27.677 -28.9493 65.4605 -0.00802901 -2.49487 -0.350863 -6.9272e-10 -5.69504e-09 2.52524e-09 -1.20609e-09 -9.84595e-09 4.36363e-09 -6.92719e-10 -5.69503e-09 2.52522e-09 7.73091 5.47488 0.417314 -6.92724e-10 -5.69503e-09 2.52523e-09 2.90554 0.965183 0.102902 -6.92713e-10 -5.69503e-09 2.52523e-09 10.2786 0.731801 0.0259123 -6.92724e-10 -5.69503e-09 2.52524e-09 2.22167 -0.733487 -0.20892 -2.16015e-13 5.95546e-13 1.80431e-13 -89.1403 37.5621 6.73634 -27.4689 -28.0499 64.129 0.0268012 -4.68381 0.65973 1.54142e-09 1.15601e-08 -4.1055e-09 2.67526e-09 1.99895e-08 -7.08439e-09 1.54141e-09 1.15601e-08 -4.10549e-09 -7.73091 5.47488 -0.417314 1.54142e-09 1.15601e-08 -4.1055e-09 -2.90554 0.965183 -0.102902 1.54142e-09 1.15601e-08 -4.1055e-09 -10.2786 0.731801 -0.0259123 1.54142e-09 1.15601e-08 -4.10551e-09 -2.22167 -0.733487 0.20892 -2.03217e-16 0.0 -3.88251e-19 -9.42351 -33.6835 -13.8992 -165.518 85.7905 166.713 -0.621333 -4.71164 -1.2164 2.03217e-16 0.0 3.88251e-19 -2.37413 -48.3779 -5.91874 1.38905 64.1735 -1.81183 -0.234041 -2.03047 -4.05676
